HIERARCHY
ROOT newVegas:Hips
{
	OFFSET 0.000000 96.479958 0.000000
	CHANNELS 6 Xposition Yposition Zposition Xrotation Yrotation Zrotation
	JOINT newVegas:Pelvis
	{
		OFFSET 0.000000 0.000000 0.000000
		CHANNELS 3 Xrotation Yrotation Zrotation
		JOINT newVegas:LeftUpLeg
		{
			OFFSET 18.735201 -5.666702 -4.541200
			CHANNELS 3 Xrotation Yrotation Zrotation
			JOINT newVegas:LeftLeg
			{
				OFFSET -0.021200 -31.938179 0.493100
				CHANNELS 3 Xrotation Yrotation Zrotation
				JOINT newVegas:LeftFoot
				{
					OFFSET 0.021200 -31.938179 -4.336299
					CHANNELS 3 Xrotation Yrotation Zrotation
					JOINT newVegas:LeftToeBase
					{
						OFFSET 0.943001 -26.722000 15.023500
						CHANNELS 3 Xrotation Yrotation Zrotation
						End Site
						{
							OFFSET 0.000000 30.670183 0.000000
						}
					}
				}
				JOINT newVegas:Left_PantLeg
				{
					OFFSET 0.663870 -9.044666 -1.108900
					CHANNELS 3 Xrotation Yrotation Zrotation
					End Site
					{
						OFFSET 1.415995 20.635357 0.000000
					}
				}
			}
		}
		JOINT newVegas:RightUpLeg
		{
			OFFSET -18.735201 -5.666702 -4.541200
			CHANNELS 3 Xrotation Yrotation Zrotation
			JOINT newVegas:RightLeg
			{
				OFFSET 0.018946 -31.938133 0.493100
				CHANNELS 3 Xrotation Yrotation Zrotation
				JOINT newVegas:RightFoot
				{
					OFFSET -0.018946 -31.938126 -4.336299
					CHANNELS 3 Xrotation Yrotation Zrotation
					JOINT newVegas:RightToeBase
					{
						OFFSET -0.943001 -26.722004 15.023500
						CHANNELS 3 Xrotation Yrotation Zrotation
						End Site
						{
							OFFSET 0.000000 30.670187 0.000000
						}
					}
				}
				JOINT newVegas:Right_PantLeg
				{
					OFFSET -0.661674 -9.044716 -1.108900
					CHANNELS 3 Xrotation Yrotation Zrotation
					End Site
					{
						OFFSET -1.415958 20.635269 0.000000
					}
				}
			}
		}
	}
	JOINT newVegas:Spine
	{
		OFFSET 0.000000 10.199997 -0.299500
		CHANNELS 3 Xrotation Yrotation Zrotation
		JOINT newVegas:Spine1
		{
			OFFSET 0.000000 11.900002 -1.516600
			CHANNELS 3 Xrotation Yrotation Zrotation
			JOINT newVegas:Spine2
			{
				OFFSET 0.000000 13.600006 -2.842500
				CHANNELS 3 Xrotation Yrotation Zrotation
				JOINT newVegas:Neck
				{
					OFFSET 0.000000 9.624100 -2.890100
					CHANNELS 3 Xrotation Yrotation Zrotation
					JOINT newVegas:Head
					{
						OFFSET 0.000000 14.068802 -1.351900
						CHANNELS 3 Xrotation Yrotation Zrotation
						JOINT newVegas:Hair_Back
						{
							OFFSET 0.000000 3.231903 -17.524799
							CHANNELS 3 Xrotation Yrotation Zrotation
							End Site
							{
								OFFSET 0.000000 19.849884 0.000000
							}
						}
						JOINT newVegas:Hair_Front
						{
							OFFSET 0.000000 31.260406 4.573800
							CHANNELS 3 Xrotation Yrotation Zrotation
							JOINT newVegas:Hair_Front1
							{
								OFFSET 0.000000 2.284103 11.993300
								CHANNELS 3 Xrotation Yrotation Zrotation
								JOINT newVegas:Hair_Front2
								{
									OFFSET 0.000000 2.284103 11.993300
									CHANNELS 3 Xrotation Yrotation Zrotation
									End Site
									{
										OFFSET 0.000000 12.208862 0.000000
									}
								}
							}
						}
						JOINT newVegas:Jowel
						{
							OFFSET 0.000000 -7.458206 6.864100
							CHANNELS 3 Xrotation Yrotation Zrotation
							End Site
							{
								OFFSET 0.000000 19.849884 0.000000
							}
						}
					}
				}
				JOINT newVegas:LeftShoulder
				{
					OFFSET 15.263000 10.923401 -0.547700
					CHANNELS 3 Xrotation Yrotation Zrotation
					JOINT newVegas:LeftArm
					{
						OFFSET 25.438599 -2.830597 -13.032500
						CHANNELS 3 Xrotation Yrotation Zrotation
						JOINT newVegas:LeftForeArm
						{
							OFFSET 29.960503 0.000000 0.000000
							CHANNELS 3 Xrotation Yrotation Zrotation
							JOINT newVegas:LeftHand
							{
								OFFSET 27.849251 0.000000 0.000000
								CHANNELS 3 Xrotation Yrotation Zrotation
								JOINT newVegas:LeftHandThumb1
								{
									OFFSET 4.487587 -3.305161 6.305391
									CHANNELS 3 Xrotation Yrotation Zrotation
									JOINT newVegas:LeftHandThumb2
									{
										OFFSET 5.480453 -3.164139 3.164143
										CHANNELS 3 Xrotation Yrotation Zrotation
										JOINT newVegas:LeftHandThumb3
										{
											OFFSET 5.159721 -2.978973 2.978967
											CHANNELS 3 Xrotation Yrotation Zrotation
											End Site
											{
												OFFSET 2.494507 5.926697 1.738678
											}
										}
									}
								}
								JOINT newVegas:LeftHandIndex1
								{
									OFFSET 18.578728 -0.527832 5.208049
									CHANNELS 3 Xrotation Yrotation Zrotation
									JOINT newVegas:LeftHandIndex2
									{
										OFFSET 3.192009 0.000000 0.000000
										CHANNELS 3 Xrotation Yrotation Zrotation
										JOINT newVegas:LeftHandIndex3
										{
											OFFSET 3.835129 0.000000 0.000000
											CHANNELS 3 Xrotation Yrotation Zrotation
											End Site
											{
												OFFSET -0.034599 3.816971 0.371180
											}
										}
									}
								}
								JOINT newVegas:LeftHandMiddle1
								{
									OFFSET 18.476105 0.000000 0.000000
									CHANNELS 3 Xrotation Yrotation Zrotation
									JOINT newVegas:LeftHandMiddle2
									{
										OFFSET 3.324875 0.000000 0.000000
										CHANNELS 3 Xrotation Yrotation Zrotation
										JOINT newVegas:LeftHandMiddle3
										{
											OFFSET 4.596550 0.000000 0.000000
											CHANNELS 3 Xrotation Yrotation Zrotation
											End Site
											{
												OFFSET 0.057701 4.578827 0.399218
											}
										}
									}
								}
								JOINT newVegas:LeftHandRing1
								{
									OFFSET 17.732719 0.121887 -4.201567
									CHANNELS 3 Xrotation Yrotation Zrotation
									JOINT newVegas:LeftHandRing2
									{
										OFFSET 2.733170 0.000000 0.000000
										CHANNELS 3 Xrotation Yrotation Zrotation
										JOINT newVegas:LeftHandRing3
										{
											OFFSET 3.178268 0.000000 0.000000
											CHANNELS 3 Xrotation Yrotation Zrotation
											End Site
											{
												OFFSET 0.119102 3.170624 0.185394
											}
										}
									}
								}
								JOINT newVegas:LeftHandPinky1
								{
									OFFSET 15.989624 -0.606689 -7.535461
									CHANNELS 3 Xrotation Yrotation Zrotation
									JOINT newVegas:LeftHandPinky2
									{
										OFFSET 2.538986 0.000000 0.000000
										CHANNELS 3 Xrotation Yrotation Zrotation
										JOINT newVegas:LeftHandPinky3
										{
											OFFSET 2.593102 0.000000 0.000000
											CHANNELS 3 Xrotation Yrotation Zrotation
											End Site
											{
												OFFSET -0.150902 2.584198 0.152708
											}
										}
									}
								}
							}
							JOINT newVegas:Left_Sleeve
							{
								OFFSET 0.267448 -0.649796 0.577675
								CHANNELS 3 Xrotation Yrotation Zrotation
								End Site
								{
									OFFSET 0.000000 15.991241 0.000000
								}
							}
							JOINT newVegas:Left_CapeC
							{
								OFFSET 15.715958 -8.608795 -6.935905
								CHANNELS 3 Xrotation Yrotation Zrotation
								JOINT newVegas:Left_CapeC1
								{
									OFFSET 0.000000 -8.688499 0.000000
									CHANNELS 3 Xrotation Yrotation Zrotation
									End Site
									{
										OFFSET 0.000000 8.688499 0.000000
									}
								}
							}
						}
						JOINT newVegas:Left_CapeB
						{
							OFFSET 26.118385 -8.608795 -7.079235
							CHANNELS 3 Xrotation Yrotation Zrotation
							JOINT newVegas:Left_CapeB1
							{
								OFFSET 0.000000 -8.688499 0.000000
								CHANNELS 3 Xrotation Yrotation Zrotation
								End Site
								{
									OFFSET 0.000000 8.688499 0.000000
								}
							}
						}
						JOINT newVegas:Left_CapeA
						{
							OFFSET 5.115639 -8.608795 -10.395809
							CHANNELS 3 Xrotation Yrotation Zrotation
							JOINT newVegas:Left_CapeA1
							{
								OFFSET 0.000000 -8.688499 0.000000
								CHANNELS 3 Xrotation Yrotation Zrotation
								End Site
								{
									OFFSET 0.000000 8.688499 0.000000
								}
							}
						}
					}
				}
				JOINT newVegas:RightShoulder
				{
					OFFSET -15.263000 10.923401 -0.547700
					CHANNELS 3 Xrotation Yrotation Zrotation
					JOINT newVegas:RightArm
					{
						OFFSET -25.438599 -2.830597 -13.032500
						CHANNELS 3 Xrotation Yrotation Zrotation
						JOINT newVegas:RightForeArm
						{
							OFFSET -29.960503 0.000000 0.000000
							CHANNELS 3 Xrotation Yrotation Zrotation
							JOINT newVegas:RightHand
							{
								OFFSET -27.849251 0.000000 0.000000
								CHANNELS 3 Xrotation Yrotation Zrotation
								JOINT newVegas:RightHandThumb1
								{
									OFFSET -4.487587 -3.305161 6.305391
									CHANNELS 3 Xrotation Yrotation Zrotation
									JOINT newVegas:RightHandThumb2
									{
										OFFSET -5.480453 -3.164139 3.164143
										CHANNELS 3 Xrotation Yrotation Zrotation
										JOINT newVegas:RightHandThumb3
										{
											OFFSET -5.159721 -2.978973 2.978967
											CHANNELS 3 Xrotation Yrotation Zrotation
											End Site
											{
												OFFSET -2.494507 5.926697 1.738678
											}
										}
									}
								}
								JOINT newVegas:RightHandIndex1
								{
									OFFSET -18.578728 -0.527832 5.208049
									CHANNELS 3 Xrotation Yrotation Zrotation
									JOINT newVegas:RightHandIndex2
									{
										OFFSET -3.192009 0.000000 0.000000
										CHANNELS 3 Xrotation Yrotation Zrotation
										JOINT newVegas:RightHandIndex3
										{
											OFFSET -3.835129 0.000000 0.000000
											CHANNELS 3 Xrotation Yrotation Zrotation
											End Site
											{
												OFFSET 0.034599 3.816971 0.371180
											}
										}
									}
								}
								JOINT newVegas:RightHandMiddle1
								{
									OFFSET -18.476105 0.000000 0.000000
									CHANNELS 3 Xrotation Yrotation Zrotation
									JOINT newVegas:RightHandMiddle2
									{
										OFFSET -3.324875 0.000000 0.000000
										CHANNELS 3 Xrotation Yrotation Zrotation
										JOINT newVegas:RightHandMiddle3
										{
											OFFSET -4.596550 0.000000 0.000000
											CHANNELS 3 Xrotation Yrotation Zrotation
											End Site
											{
												OFFSET -0.057701 4.578827 0.399218
											}
										}
									}
								}
								JOINT newVegas:RightHandRing1
								{
									OFFSET -17.732719 0.121887 -4.201567
									CHANNELS 3 Xrotation Yrotation Zrotation
									JOINT newVegas:RightHandRing2
									{
										OFFSET -2.733170 0.000000 0.000000
										CHANNELS 3 Xrotation Yrotation Zrotation
										JOINT newVegas:RightHandRing3
										{
											OFFSET -3.178268 0.000000 0.000000
											CHANNELS 3 Xrotation Yrotation Zrotation
											End Site
											{
												OFFSET -0.119102 3.170624 0.185394
											}
										}
									}
								}
								JOINT newVegas:RightHandPinky1
								{
									OFFSET -15.989624 -0.606689 -7.535461
									CHANNELS 3 Xrotation Yrotation Zrotation
									JOINT newVegas:RightHandPinky2
									{
										OFFSET -2.538986 0.000000 0.000000
										CHANNELS 3 Xrotation Yrotation Zrotation
										JOINT newVegas:RightHandPinky3
										{
											OFFSET -2.593102 0.000000 0.000000
											CHANNELS 3 Xrotation Yrotation Zrotation
											End Site
											{
												OFFSET 0.150902 2.584198 0.152708
											}
										}
									}
								}
							}
							JOINT newVegas:Right_CapeC
							{
								OFFSET -15.715958 -8.608795 -6.935905
								CHANNELS 3 Xrotation Yrotation Zrotation
								JOINT newVegas:Right_CapeC1
								{
									OFFSET 0.000000 -8.688499 0.000000
									CHANNELS 3 Xrotation Yrotation Zrotation
									End Site
									{
										OFFSET 0.000000 8.688499 0.000000
									}
								}
							}
							JOINT newVegas:Right_Sleeve
							{
								OFFSET -0.267448 -0.649994 0.577675
								CHANNELS 3 Xrotation Yrotation Zrotation
								End Site
								{
									OFFSET 0.000000 15.991302 0.000000
								}
							}
						}
						JOINT newVegas:Right_CapeA
						{
							OFFSET -5.115540 -8.608795 -10.395824
							CHANNELS 3 Xrotation Yrotation Zrotation
							JOINT newVegas:Right_CapeA1
							{
								OFFSET 0.000000 -8.688499 0.000000
								CHANNELS 3 Xrotation Yrotation Zrotation
								End Site
								{
									OFFSET 0.000000 8.688499 0.000000
								}
							}
						}
						JOINT newVegas:Right_CapeB
						{
							OFFSET -26.118187 -8.608795 -7.079266
							CHANNELS 3 Xrotation Yrotation Zrotation
							JOINT newVegas:Right_CapeB1
							{
								OFFSET 0.000000 -8.688499 0.000000
								CHANNELS 3 Xrotation Yrotation Zrotation
								End Site
								{
									OFFSET 0.000000 8.688499 0.000000
								}
							}
						}
					}
				}
				JOINT newVegas:Left_Collar
				{
					OFFSET 18.625099 8.655502 8.828100
					CHANNELS 3 Xrotation Yrotation Zrotation
					JOINT newVegas:Left_Collar1
					{
						OFFSET 14.783401 10.540405 -1.259500
						CHANNELS 3 Xrotation Yrotation Zrotation
						End Site
						{
							OFFSET 0.000000 18.199875 0.000000
						}
					}
				}
				JOINT newVegas:Collar_Back
				{
					OFFSET 0.000000 15.630707 -20.132601
					CHANNELS 3 Xrotation Yrotation Zrotation
					End Site
					{
						OFFSET 0.000000 22.523010 0.000000
					}
				}
				JOINT newVegas:Left_Peck
				{
					OFFSET 17.239599 -5.132599 25.482599
					CHANNELS 3 Xrotation Yrotation Zrotation
					End Site
					{
						OFFSET 0.000000 22.523010 0.000000
					}
				}
				JOINT newVegas:Right_Peck
				{
					OFFSET -17.239599 -5.132202 25.482599
					CHANNELS 3 Xrotation Yrotation Zrotation
					End Site
					{
						OFFSET 0.000000 22.523010 0.000000
					}
				}
				JOINT newVegas:Right_Collar
				{
					OFFSET -18.625099 8.655792 8.828100
					CHANNELS 3 Xrotation Yrotation Zrotation
					JOINT newVegas:Right_Collar1
					{
						OFFSET -14.783401 10.539993 -1.259500
						CHANNELS 3 Xrotation Yrotation Zrotation
						End Site
						{
							OFFSET 0.000000 18.199631 0.000000
						}
					}
				}
			}
		}
		JOINT newVegas:Belly
		{
			OFFSET 0.000000 -6.540398 9.014299
			CHANNELS 3 Xrotation Yrotation Zrotation
			End Site
			{
				OFFSET 0.000000 11.566666 0.000000
			}
		}
	}
	JOINT newVegas:ElvisFacialAnim_Joint
	{
		OFFSET 1.000000 -95.330101 -8.825800
		CHANNELS 3 Xrotation Yrotation Zrotation
		End Site
		{
			OFFSET 0.000000 35.315800 0.000000
		}
	}
}
MOTION
Frames: 4
Frame Time: 0.033333
6.064228 89.117500 16.692045 19.069555 -27.917724 2.825556 -0.000000 0.000001 0.000000 -35.237523 12.383412 10.487560 48.384783 18.639793 -6.012416 -30.482639 -6.282105 -3.018644 0.000000 -0.000000 -0.000000 0.000001 0.000000 0.000000 -23.424470 -3.564969 -18.573434 14.448227 15.538907 3.908653 -0.673997 -3.503853 17.018511 0.000000 0.000001 0.000000 0.000000 -0.000002 0.000000 35.197324 3.333327 -5.191874 -8.728231 1.851937 4.954279 -8.868695 2.935799 4.342674 -0.798501 1.491035 -2.421003 -0.798509 1.491047 -2.421012 0.000003 -0.000002 0.000001 -0.798475 1.491026 -2.421004 -0.798553 1.491055 -2.421009 -0.000001 0.000000 -0.000000 0.000003 -0.000002 0.000000 5.759573 -3.491751 24.475754 -75.307207 3.597803 2.515989 54.668865 -51.449124 37.936722 -38.288186 10.902139 35.691741 17.551604 -5.699224 -12.932303 10.850465 26.127729 8.644823 0.000003 0.000000 0.000001 13.980916 1.201535 -55.004374 0.370807 1.161741 -65.441887 0.000002 -0.000000 -0.000001 7.504729 1.174482 -63.778524 1.807830 1.475645 -64.567998 0.000000 0.000001 0.000000 8.574347 2.179070 -75.148999 -0.217864 1.002856 -57.855117 -0.000001 0.000001 0.000001 10.030115 13.637065 -84.750271 0.877102 0.062305 -64.595551 0.000000 -0.000003 0.000000 -0.000001 -0.000002 -0.000004 -0.000001 -0.000002 -0.000004 -0.000001 -0.000001 -0.000004 -0.000001 -0.000002 -0.000002 -0.000001 -0.000003 -0.000003 -0.000001 -0.000002 -0.000002 0.000001 -0.000002 -0.000002 9.731043 -1.212350 24.924065 22.403220 -1.642790 39.426990 -4.681817 26.523720 2.543625 0.203020 6.905684 -4.938365 15.788508 -2.734481 -17.205882 -2.198322 -31.113571 7.361263 0.000001 -0.000006 0.000000 2.371630 -3.659169 8.487442 -2.147359 -2.473160 18.673297 0.000001 0.000001 0.000001 -1.976251 -5.707896 13.662333 0.283033 -5.105394 26.988101 0.000001 -0.000001 0.000002 -3.263056 -8.562151 11.769118 4.036046 -4.063293 33.263110 0.000001 0.000004 0.000002 -6.474168 -11.347977 23.260703 10.719422 -2.558795 34.823006 -0.000000 -0.000000 0.000001 -0.000000 0.000001 -0.000000 -0.000000 -0.000003 -0.000000 -0.000000 0.000001 -0.000000 -0.000000 0.000000 -0.000000 -0.000000 0.000001 -0.000000 -0.000000 0.000000 -0.000000 -0.000000 0.000001 -0.000000 -0.000000 0.000000 -0.000000 -0.000000 0.000000 -0.000000 -0.000000 0.000000 -0.000000 -0.000000 0.000000 -0.000000 -0.000000 0.000000 -0.000000 -0.000000 0.000000 -0.000000 -0.000000 0.000000 -0.000000 0.000003 0.000000 -0.000002 -0.000000 0.000001 0.000000 
6.147748 89.094185 16.663300 19.071415 -27.668596 2.764284 0.000001 0.000002 -0.000000 -35.397110 12.346118 10.564452 48.447044 18.322754 -6.161628 -30.449479 -6.360944 -2.850291 -0.000000 -0.000000 -0.000000 -0.000004 0.000000 -0.000000 -23.310471 -3.606910 -18.553193 14.465022 15.314841 3.806220 -0.822819 -3.533996 17.076789 0.000000 -0.000001 0.000000 0.000002 -0.000002 0.000001 35.195603 3.324068 -5.273749 -8.743796 1.840214 5.008036 -8.887616 2.933386 4.396935 -0.674659 1.856209 -2.580772 -0.674647 1.856209 -2.580770 0.000000 0.000001 -0.000001 -0.674639 1.856208 -2.580772 -0.674714 1.856211 -2.580767 -0.000000 -0.000001 0.000001 0.000000 0.000001 -0.000001 5.843497 -3.705739 24.594989 -75.367149 3.619910 2.613281 54.904062 -51.623721 38.189131 -38.152955 10.994542 35.713960 17.551604 -5.699223 -12.932295 10.850462 26.127729 8.644825 0.000002 -0.000004 -0.000003 13.980916 1.201536 -55.004374 0.370809 1.161737 -65.441880 0.000001 -0.000001 -0.000002 7.504728 1.174481 -63.778524 1.807829 1.475646 -64.568005 -0.000000 0.000001 -0.000002 8.574347 2.179069 -75.148999 -0.217862 1.002854 -57.855117 0.000000 -0.000001 -0.000001 10.030114 13.637066 -84.750264 0.877106 0.062308 -64.595544 -0.000000 -0.000003 -0.000000 -0.000001 -0.000000 0.000001 -0.000001 -0.000000 0.000001 -0.000001 0.000000 0.000001 -0.000000 -0.000003 -0.000001 0.000000 -0.000003 -0.000001 -0.000000 -0.000003 -0.000001 -0.000002 -0.000004 -0.000000 9.679015 -1.116819 24.843188 23.197506 -0.920182 39.903468 -4.614365 26.773937 2.513923 0.205708 6.949782 -4.980616 15.788506 -2.734487 -17.205882 -2.198319 -31.113564 7.361265 0.000003 -0.000003 0.000001 2.371628 -3.659170 8.487443 -2.147359 -2.473166 18.673297 0.000000 0.000001 0.000001 -1.976252 -5.707902 13.662338 0.283034 -5.105394 26.988104 0.000001 -0.000004 -0.000001 -3.263056 -8.562153 11.769119 4.036046 -4.063297 33.263110 0.000004 0.000001 0.000001 -6.474167 -11.347987 23.260704 10.719422 -2.558792 34.823009 0.000002 -0.000000 0.000001 -0.000000 0.000000 -0.000000 -0.000000 -0.000000 -0.000000 -0.000000 -0.000000 -0.000000 0.000000 -0.000002 0.000000 0.000000 -0.000001 0.000000 0.000000 -0.000002 0.000000 0.000000 -0.000001 0.000000 0.000002 -0.000001 0.000001 0.000002 -0.000001 0.000001 0.000002 -0.000001 0.000001 0.000002 -0.000001 0.000001 0.000002 -0.000001 0.000001 0.000002 -0.000001 0.000001 0.000002 -0.000001 0.000001 0.000002 -0.000000 -0.000000 0.000001 0.000002 -0.000000 
6.231795 89.074707 16.642191 19.047125 -27.376433 2.669982 -0.000001 -0.000002 -0.000000 -35.558235 12.308862 10.658199 48.530174 17.991091 -6.319602 -30.409918 -6.448265 -2.655511 0.000000 0.000000 0.000000 0.000002 -0.000000 0.000000 -23.144996 -3.658357 -18.510743 14.484430 15.044634 3.685849 -0.970041 -3.562054 17.137003 0.000001 -0.000002 0.000000 -0.000000 -0.000002 -0.000001 35.228343 3.292873 -5.265635 -8.781514 1.822821 4.988028 -8.924675 2.916061 4.379940 -0.508287 2.269690 -2.718532 -0.508305 2.269682 -2.718530 -0.000001 0.000000 -0.000000 -0.508180 2.269705 -2.718542 -0.508330 2.269683 -2.718532 -0.000000 -0.000000 0.000000 -0.000001 0.000000 -0.000000 5.863296 -3.817431 24.685858 -75.451829 3.625249 2.659279 55.265014 -51.872254 38.572660 -38.003330 11.075728 35.712583 17.551602 -5.699224 -12.932290 10.850462 26.127729 8.644823 0.000002 -0.000002 -0.000005 13.980915 1.201536 -55.004377 0.370808 1.161740 -65.441887 0.000001 0.000000 -0.000000 7.504728 1.174482 -63.778524 1.807830 1.475645 -64.568005 0.000000 0.000001 0.000002 8.574346 2.179068 -75.148999 -0.217865 1.002856 -57.855117 -0.000001 -0.000002 0.000001 10.030117 13.637064 -84.750264 0.877101 0.062305 -64.595544 -0.000000 -0.000002 -0.000000 -0.000003 0.000001 0.000003 -0.000003 0.000001 0.000003 -0.000004 0.000002 0.000003 -0.000002 0.000003 0.000000 -0.000002 0.000002 -0.000002 -0.000002 0.000003 0.000000 0.000000 0.000001 0.000001 9.631432 -0.899155 24.890473 23.886807 -0.343019 40.293355 -4.594633 27.066088 2.497378 0.201228 6.896753 -5.014075 15.788505 -2.734481 -17.205882 -2.198320 -31.113564 7.361267 0.000002 -0.000003 0.000001 2.371628 -3.659169 8.487442 -2.147357 -2.473157 18.673297 0.000001 0.000000 -0.000000 -1.976251 -5.707894 13.662335 0.283033 -5.105390 26.988101 -0.000001 -0.000000 -0.000003 -3.263056 -8.562148 11.769119 4.036047 -4.063289 33.263110 -0.000001 -0.000001 -0.000002 -6.474169 -11.347974 23.260708 10.719424 -2.558794 34.823006 0.000000 0.000003 -0.000002 -0.000000 0.000001 -0.000000 -0.000000 0.000001 -0.000000 -0.000000 0.000001 -0.000000 -0.000000 0.000001 0.000000 -0.000000 0.000002 0.000000 -0.000000 0.000001 0.000000 -0.000000 0.000002 0.000000 -0.000000 0.000001 -0.000001 -0.000000 0.000001 -0.000001 -0.000000 0.000001 -0.000001 -0.000000 0.000001 -0.000001 -0.000000 0.000001 -0.000001 -0.000000 0.000001 -0.000001 -0.000000 0.000001 -0.000001 -0.000000 0.000000 0.000001 -0.000001 -0.000002 -0.000000 
6.307491 89.055939 16.629662 19.015154 -27.083006 2.550803 0.000003 -0.000000 -0.000000 -35.713638 12.268826 10.783403 48.621419 17.633248 -6.471252 -30.390227 -6.533180 -2.466048 0.000000 -0.000000 0.000000 -0.000000 0.000000 0.000000 -22.949822 -3.709824 -18.441501 14.470031 14.768191 3.568676 -1.089636 -3.579554 17.205101 0.000001 0.000000 0.000000 -0.000001 -0.000001 -0.000001 35.224679 3.269873 -5.214812 -8.778246 1.827970 4.915196 -8.918045 2.905493 4.307073 -0.370359 2.666562 -2.850767 -0.370346 2.666559 -2.850773 0.000001 -0.000000 0.000001 -0.370280 2.666571 -2.850778 -0.370445 2.666544 -2.850761 0.000001 0.000000 -0.000000 0.000001 -0.000000 0.000001 5.830434 -3.761728 24.809482 -75.594498 3.582999 2.547911 55.810046 -51.837898 39.055875 -37.843667 11.155859 35.697065 17.551605 -5.699223 -12.932296 10.850461 26.127734 8.644825 0.000001 -0.000000 -0.000003 13.980917 1.201537 -55.004374 0.370808 1.161739 -65.441887 0.000000 0.000000 0.000001 7.504728 1.174483 -63.778524 1.807830 1.475645 -64.567998 -0.000000 -0.000000 -0.000002 8.574347 2.179071 -75.148999 -0.217865 1.002855 -57.855117 -0.000000 -0.000001 -0.000000 10.030113 13.637069 -84.750271 0.877107 0.062301 -64.595544 0.000001 -0.000003 -0.000000 -0.000001 -0.000000 -0.000001 -0.000001 -0.000000 -0.000001 -0.000001 0.000000 -0.000001 -0.000002 0.000002 0.000001 -0.000002 0.000001 -0.000001 -0.000002 0.000002 0.000001 -0.000000 0.000002 0.000001 9.594066 -0.614764 25.035495 24.463511 0.159927 40.574558 -4.685895 27.335903 2.540552 0.202774 6.880361 -5.074086 15.788506 -2.734481 -17.205883 -2.198323 -31.113564 7.361267 -0.000000 -0.000000 -0.000000 2.371629 -3.659166 8.487443 -2.147360 -2.473155 18.673297 -0.000000 0.000002 -0.000002 -1.976250 -5.707897 13.662337 0.283034 -5.105397 26.988101 0.000000 -0.000002 0.000000 -3.263056 -8.562151 11.769117 4.036047 -4.063292 33.263110 -0.000000 0.000002 0.000001 -6.474167 -11.347976 23.260704 10.719420 -2.558791 34.823006 0.000001 0.000002 -0.000002 -0.000000 0.000008 0.000000 -0.000000 0.000001 0.000000 -0.000000 0.000008 0.000000 0.000000 0.000002 0.000000 0.000000 0.000003 0.000000 0.000000 0.000002 0.000000 0.000000 0.000003 0.000000 0.000001 -0.000001 0.000002 0.000001 -0.000001 0.000002 0.000001 -0.000001 0.000002 0.000001 -0.000001 0.000002 0.000001 -0.000001 0.000002 0.000001 -0.000001 0.000002 0.000001 -0.000001 0.000002 0.000001 0.000000 0.000001 0.000003 -0.000000 -0.000000 
